<svg xmlns="http://www.w3.org/2000/svg" viewBox="0 0 2500 808">
  <path fill="#1434CB" d="M1105.7 800h242.4L1502 0h-233.2c-29.3 0-54.6 15.5-65.7 41.6L946.9 800h253.2c3-8.1 5.9-16.7 8.9-25.5-3.3 9.4-4.8 13.5-4.8 13.5l11.5-32.9zm308.2-564.4c0-51.5-68.5-54.3-67.7-77.1.3-7.2 6.8-15 22.3-17 7.7-1 28.5-2.2 46.8 6.4v-75.1c-17.7-6.2-40.4-11.7-67.6-11.7-93.5 0-159.4 49-159.9 119.5-.6 52 46.8 80.8 81.3 97.4 35.5 17 48.3 28.1 48 43.1-.3 23.3-28.5 33.8-54.6 33.8-37.1.3-64.7-6.6-86.8-16.6l-14 40.5c23.2 10.7 65.5 19.4 108.6 19.4 97 0 162.7-47 163.6-118.8z"/>
  <path fill="#F5A100" d="M371.1 0L241.6 612.4h229l29.6-150.3h288.7l27.1 150.3H1042L857 0H741.1C712.1 0 686.9 15.5 675.8 41.6L557.5 561h221L824.2 431.5H371.1z"/>
</svg>
